<?xml version="1.0" encoding="UTF-8" standalone="no"?>
<svg
   xmlns:dc="http://purl.org/dc/elements/1.1/"
   xmlns:cc="http://creativecommons.org/ns#"
   xmlns:rdf="http://www.w3.org/1999/02/22-rdf-syntax-ns#"
   xmlns:svg="http://www.w3.org/2000/svg"
   xmlns="http://www.w3.org/2000/svg"
   xmlns:sodipodi="http://sodipodi.sourceforge.net/DTD/sodipodi-0.dtd"
   xmlns:inkscape="http://www.inkscape.org/namespaces/inkscape"
   width="210mm"
   height="210mm"
   viewBox="0 0 210 210"
   version="1.1"
   id="svg8"
   inkscape:version="1.0.1 (1.0.1+r73)"
   sodipodi:docname="pajonal.svg">
  <defs
     id="defs2" />
  <sodipodi:namedview
     id="base"
     pagecolor="#ffffff"
     bordercolor="#666666"
     borderopacity="1.0"
     inkscape:pageopacity="0.0"
     inkscape:pageshadow="2"
     inkscape:zoom="0.49497475"
     inkscape:cx="-138.78774"
     inkscape:cy="683.72683"
     inkscape:document-units="mm"
     inkscape:current-layer="layer1"
     inkscape:document-rotation="0"
     showgrid="false"
     inkscape:snap-to-guides="false"
     inkscape:snap-page="false"
     inkscape:snap-object-midpoints="true"
     inkscape:snap-center="true"
     inkscape:snap-text-baseline="true"
     inkscape:snap-smooth-nodes="true"
     inkscape:snap-intersection-paths="true"
     inkscape:object-paths="true"
     inkscape:snap-bbox="true"
     inkscape:bbox-nodes="true"
     inkscape:bbox-paths="true"
     inkscape:snap-bbox-edge-midpoints="true"
     inkscape:snap-bbox-midpoints="true"
     inkscape:snap-midpoints="true"
     inkscape:snap-global="true"
     inkscape:snap-grids="false"
     inkscape:window-width="1364"
     inkscape:window-height="1016"
     inkscape:window-x="121"
     inkscape:window-y="90"
     inkscape:window-maximized="0" />
  <metadata
     id="metadata5">
    <rdf:RDF>
      <cc:Work
         rdf:about="">
        <dc:format>image/svg+xml</dc:format>
        <dc:type
           rdf:resource="http://purl.org/dc/dcmitype/StillImage" />
        <dc:title></dc:title>
      </cc:Work>
    </rdf:RDF>
  </metadata>
  <g
     inkscape:label="Capa 1"
     inkscape:groupmode="layer"
     id="layer1">
    <path
       style="fill:#008000;stroke-width:0.183323"
       d="m 62.730285,130.86995 c -0.05999,-0.3781 -0.846346,-6.46212 -1.747477,-13.52004 L 59.344392,104.51733 54.470664,89.043009 c -2.68055,-8.51089 -4.849111,-15.5482 -4.819017,-15.63846 0.04733,-0.14202 3.589451,7.73189 22.799697,50.682461 l 3.341241,7.4704 h -6.476624 -6.476618 z"
       id="path81" />
    <path
       style="fill:#008000;stroke-width:0.183323"
       d="m 91.599445,130.7723 c 0.0807,-0.43179 1.52359,-8.78443 3.20649,-18.56141 l 3.05982,-17.776301 2.251445,-19.15721 c 1.2383,-10.53646 2.25979,-19.033471 2.26996,-18.882224 0.0107,0.151226 1.00463,8.733914 2.20986,19.072594 l 2.19136,18.79762 3.12654,18.233551 c 1.71962,10.02844 3.1685,18.41916 3.21974,18.64603 l 0.0932,0.41246 H 102.34033 91.452825 Z"
       id="path83" />
    <path
       style="fill:#008000;stroke-width:0.183323"
       d="m 131.00309,131.45092 c 0,-0.0586 2.77949,-7.91588 6.17665,-17.46068 l 6.17663,-17.354171 6.97143,-12.4369 c 3.8343,-6.84028 6.99627,-12.36238 7.02662,-12.27132 0.0304,0.091 -2.06136,5.97603 -4.64823,13.07771 l -4.70343,12.91216 -1.98487,16.407361 c -1.09167,9.02407 -1.98804,16.593 -1.99191,16.81987 l -0.006,0.41246 h -6.50792 c -3.57939,0 -6.50796,-0.0479 -6.50796,-0.10655 z"
       id="path85" />
    <path
       style="fill:#008000;stroke-width:0.183323"
       d="m 62.730285,130.86995 c -0.05999,-0.3781 -0.846346,-6.46212 -1.747477,-13.52004 L 59.344392,104.51733 54.470664,89.043009 c -2.68055,-8.51089 -4.849111,-15.5482 -4.819017,-15.63846 0.04733,-0.14202 3.589451,7.73189 22.799697,50.682461 l 3.341241,7.4704 h -6.476624 -6.476618 z"
       id="path87" />
    <path
       style="fill:#008000;stroke-width:0.183323"
       d="m 91.599445,130.7723 c 0.0807,-0.43179 1.52359,-8.78443 3.20649,-18.56141 l 3.05982,-17.776301 2.251445,-19.15721 c 1.2383,-10.53646 2.25979,-19.033471 2.26996,-18.882224 0.0107,0.151226 1.00463,8.733914 2.20986,19.072594 l 2.19136,18.79762 3.12654,18.233551 c 1.71962,10.02844 3.1685,18.41916 3.21974,18.64603 l 0.0932,0.41246 H 102.34033 91.452825 Z"
       id="path89" />
    <path
       style="fill:#008000;stroke-width:0.183323"
       d="m 131.00309,131.45092 c 0,-0.0586 2.77949,-7.91588 6.17665,-17.46068 l 6.17663,-17.354171 6.97143,-12.4369 c 3.8343,-6.84028 6.99627,-12.36238 7.02662,-12.27132 0.0304,0.091 -2.06136,5.97603 -4.64823,13.07771 l -4.70343,12.91216 -1.98487,16.407361 c -1.09167,9.02407 -1.98804,16.593 -1.99191,16.81987 l -0.006,0.41246 h -6.50792 c -3.57939,0 -6.50796,-0.0479 -6.50796,-0.10655 z"
       id="path91" />
    <path
       style="fill:#008000;stroke-width:0.183323"
       d="m 62.730285,130.86995 c -0.05999,-0.3781 -0.846346,-6.46212 -1.747477,-13.52004 L 59.344392,104.51733 54.470664,89.043009 c -2.68055,-8.51089 -4.849111,-15.5482 -4.819017,-15.63846 0.04733,-0.14202 3.589451,7.73189 22.799697,50.682461 l 3.341241,7.4704 h -6.476624 -6.476618 z"
       id="path99" />
    <path
       style="fill:#008000;stroke-width:0.183323"
       d="m 91.599445,130.7723 c 0.0807,-0.43179 1.52359,-8.78443 3.20649,-18.56141 l 3.05982,-17.776301 2.251445,-19.15721 c 1.2383,-10.53646 2.25979,-19.033471 2.26996,-18.882224 0.0107,0.151226 1.00463,8.733914 2.20986,19.072594 l 2.19136,18.79762 3.12654,18.233551 c 1.71962,10.02844 3.1685,18.41916 3.21974,18.64603 l 0.0932,0.41246 H 102.34033 91.452825 Z"
       id="path101" />
    <path
       style="fill:#008000;stroke-width:0.183323"
       d="m 131.00309,131.45092 c 0,-0.0586 2.77949,-7.91588 6.17665,-17.46068 l 6.17663,-17.354171 6.97143,-12.4369 c 3.8343,-6.84028 6.99627,-12.36238 7.02662,-12.27132 0.0304,0.091 -2.06136,5.97603 -4.64823,13.07771 l -4.70343,12.91216 -1.98487,16.407361 c -1.09167,9.02407 -1.98804,16.593 -1.99191,16.81987 l -0.006,0.41246 h -6.50792 c -3.57939,0 -6.50796,-0.0479 -6.50796,-0.10655 z"
       id="path103" />
    <path
       style="fill:#008000;stroke-width:0.183323"
       d="m 62.730285,130.86995 c -0.05999,-0.3781 -0.846346,-6.46212 -1.747477,-13.52004 L 59.344392,104.51733 54.470664,89.043009 c -2.68055,-8.51089 -4.849111,-15.5482 -4.819017,-15.63846 0.04733,-0.14202 3.589451,7.73189 22.799697,50.682461 l 3.341241,7.4704 h -6.476624 -6.476618 z"
       id="path105" />
    <path
       style="fill:#008000;stroke-width:0.183323"
       d="m 91.599445,130.7723 c 0.0807,-0.43179 1.52359,-8.78443 3.20649,-18.56141 l 3.05982,-17.776301 2.251445,-19.15721 c 1.2383,-10.53646 2.25979,-19.033471 2.26996,-18.882224 0.0107,0.151226 1.00463,8.733914 2.20986,19.072594 l 2.19136,18.79762 3.12654,18.233551 c 1.71962,10.02844 3.1685,18.41916 3.21974,18.64603 l 0.0932,0.41246 H 102.34033 91.452825 Z"
       id="path107" />
    <path
       style="fill:#008000;stroke-width:0.183323"
       d="m 131.00309,131.45092 c 0,-0.0586 2.77949,-7.91588 6.17665,-17.46068 l 6.17663,-17.354171 6.97143,-12.4369 c 3.8343,-6.84028 6.99627,-12.36238 7.02662,-12.27132 0.0304,0.091 -2.06136,5.97603 -4.64823,13.07771 l -4.70343,12.91216 -1.98487,16.407361 c -1.09167,9.02407 -1.98804,16.593 -1.99191,16.81987 l -0.006,0.41246 h -6.50792 c -3.57939,0 -6.50796,-0.0479 -6.50796,-0.10655 z"
       id="path109" />
  </g>
</svg>
