<?xml version="1.0" standalone="no"?>
<!DOCTYPE svg PUBLIC "-//W3C//DTD SVG 20010904//EN"
 "http://www.w3.org/TR/2001/REC-SVG-20010904/DTD/svg10.dtd">
<svg version="1.0" xmlns="http://www.w3.org/2000/svg"
 width="512.000000pt" height="512.000000pt" viewBox="0 0 512.000000 512.000000"
 preserveAspectRatio="xMidYMid meet">
<metadata>
Created by potrace 1.16, written by Peter Selinger 2001-2019
</metadata>
<g transform="translate(0.000000,512.000000) scale(0.100000,-0.100000)"
fill="#000000" stroke="none">
<path d="M1660 5105 c-166 -37 -274 -99 -400 -231 -233 -243 -410 -546 -508
-869 -185 -612 -108 -1259 216 -1805 l38 -65 -28 -63 c-52 -115 -54 -260 -5
-381 l23 -57 -66 -250 -66 -249 -103 -5 c-93 -5 -105 -7 -122 -29 -27 -33 -25
-86 6 -116 13 -14 31 -25 40 -25 8 0 15 -3 15 -7 0 -3 -51 -191 -114 -417 -63
-226 -117 -425 -121 -442 -5 -25 0 -38 20 -63 l27 -31 828 0 828 0 26 30 c20
24 24 38 20 63 -3 18 -57 217 -120 442 -63 226 -114 414 -114 418 0 4 7 7 15
7 9 0 27 11 40 25 31 30 33 79 5 115 -17 23 -27 25 -122 30 l-102 5 -32 120
c-17 66 -34 132 -37 147 l-7 27 59 -33 c102 -58 262 -127 386 -168 786 -255
1671 -51 2240 517 82 83 107 115 142 185 74 148 101 317 83 510 -38 405 -236
848 -581 1300 -130 171 -159 200 -200 200 -65 0 -106 -50 -89 -110 5 -17 38
-65 73 -108 397 -477 652 -1068 624 -1446 -12 -163 -58 -275 -152 -372 -93
-95 -195 -139 -362 -153 -234 -21 -510 49 -833 211 -405 202 -784 502 -1134
898 -372 422 -631 905 -702 1310 -22 127 -15 330 14 410 47 133 119 227 217
284 358 210 1049 -2 1705 -523 63 -51 125 -94 137 -97 29 -8 81 13 93 37 11
20 13 69 4 93 -9 24 -240 206 -385 304 -301 202 -604 340 -898 409 -136 31
-417 41 -521 18z m-535 -1010 c208 -1044 1419 -2267 2470 -2495 55 -12 145
-24 200 -28 l100 -7 -115 -56 c-284 -138 -521 -197 -840 -206 -207 -6 -367 9
-545 53 -741 183 -1324 764 -1504 1499 -44 179 -55 283 -55 490 0 213 13 322
59 505 40 159 106 330 171 447 l29 52 7 -87 c4 -48 15 -123 23 -167z m206
-2351 c46 -44 101 -94 121 -112 45 -38 37 -46 -47 -46 -154 0 -286 129 -289
283 -2 98 6 101 73 24 32 -37 97 -104 142 -149z m-128 -292 l47 -23 0 -149 0
-150 -101 0 c-91 0 -100 2 -95 18 13 47 86 324 86 328 0 3 3 4 8 2 4 -2 28
-14 55 -26z m386 -162 c18 -69 34 -133 37 -142 5 -16 -4 -18 -95 -18 l-101 0
0 140 0 140 38 1 c20 0 46 4 57 9 11 4 23 5 26 1 3 -3 20 -62 38 -131z m205
-347 c3 -10 50 -180 106 -378 55 -198 103 -368 106 -377 5 -17 -31 -18 -666
-18 -635 0 -671 1 -666 18 3 9 51 179 106 377 56 198 103 368 106 378 5 16 35
17 454 17 419 0 449 -1 454 -17z"/>
<path d="M3928 4709 c-112 -26 -190 -129 -190 -249 0 -30 5 -66 10 -80 10 -24
-16 -52 -474 -510 -467 -469 -484 -487 -484 -523 0 -54 35 -87 92 -87 l42 0
481 480 480 480 60 -12 c112 -20 224 34 278 136 17 32 22 58 22 116 0 58 -5
84 -22 116 -31 59 -93 110 -154 128 -58 18 -85 18 -141 5z m95 -181 c50 -26
62 -78 27 -116 -29 -31 -65 -38 -96 -18 -50 33 -51 96 -2 130 27 19 42 20 71
4z"/>
</g>
</svg>
