<?xml version="1.0" standalone="no"?>
<!DOCTYPE svg PUBLIC "-//W3C//DTD SVG 20010904//EN"
 "http://www.w3.org/TR/2001/REC-SVG-20010904/DTD/svg10.dtd">
<svg version="1.0" xmlns="http://www.w3.org/2000/svg"
 width="800.000000pt" height="800.000000pt" viewBox="0 0 800.000000 800.000000"
 preserveAspectRatio="xMidYMid meet">
<metadata>
Created by potrace 1.16, written by Peter Selinger 2001-2019
</metadata>
<g transform="translate(0.000000,800.000000) scale(0.100000,-0.100000)"
fill="#000000" stroke="none">
<path d="M5835 7485 c-158 -34 -281 -118 -366 -248 -63 -97 -84 -173 -84 -307
0 -122 7 -151 57 -259 l30 -63 -34 -37 c-134 -143 -454 -486 -494 -530 l-49
-53 -170 158 c-94 87 -433 404 -754 704 -321 300 -595 553 -610 562 -14 10
-45 18 -68 18 -35 0 -50 -7 -84 -37 -57 -52 -157 -178 -244 -308 -500 -749
-513 -1732 -33 -2493 l59 -94 -20 -53 c-44 -118 -48 -270 -10 -403 18 -63 70
-168 106 -213 36 -45 113 -119 153 -145 22 -15 40 -32 40 -39 0 -12 -92 -314
-400 -1310 -76 -247 -142 -462 -146 -477 l-6 -28 -407 0 c-223 0 -424 -5 -445
-10 -53 -12 -114 -56 -151 -109 l-30 -43 -3 -189 -4 -189 -32 0 c-94 0 -188
-58 -230 -142 -25 -51 -26 -57 -26 -252 0 -190 1 -204 24 -252 13 -28 41 -65
62 -83 80 -65 -62 -61 2129 -59 l1990 3 48 25 c56 28 101 80 122 140 22 63 21
388 -2 455 -31 93 -136 165 -240 165 l-33 0 0 163 c0 194 -11 239 -75 302 -73
74 -82 75 -551 75 -384 0 -413 1 -418 18 -3 9 -53 172 -112 362 -58 190 -123
401 -144 470 -21 69 -86 280 -145 470 -135 436 -156 503 -152 505 1 1 17 12
35 24 l33 23 77 -30 c456 -178 942 -215 1407 -105 413 97 819 324 1103 616 76
78 82 88 82 126 0 46 -20 93 -49 113 -13 10 -620 575 -651 608 -11 11 -161
151 -280 260 -69 63 -168 156 -220 205 -52 50 -150 141 -217 204 -68 63 -123
117 -123 121 0 4 12 20 28 36 138 147 457 487 497 530 l50 54 53 -25 c165 -81
384 -66 541 35 157 102 249 258 259 443 9 178 -42 314 -167 437 -89 89 -172
133 -286 155 -92 18 -140 18 -220 0z m250 -265 c198 -96 242 -366 85 -518 -59
-58 -122 -86 -203 -90 -87 -5 -146 11 -210 59 -215 162 -156 485 103 570 48
16 173 4 225 -21z m-2624 -230 c79 -74 185 -173 234 -220 50 -48 189 -178 310
-291 121 -112 355 -331 520 -485 165 -154 507 -473 760 -709 253 -236 465
-434 471 -440 6 -5 135 -127 288 -269 l277 -259 -23 -25 c-32 -33 -180 -150
-253 -199 -444 -295 -1020 -410 -1538 -307 -43 9 -84 13 -93 10 -8 -3 -13 -2
-10 3 3 5 -15 14 -41 20 -60 16 -233 71 -233 75 0 2 10 25 21 51 60 136 78
310 44 440 -47 184 -172 342 -335 422 -223 111 -464 91 -664 -55 l-48 -35 -19
24 c-40 51 -160 310 -198 425 -80 246 -106 434 -98 717 5 160 11 228 31 325
56 274 153 511 300 736 66 102 135 188 146 184 4 -2 72 -64 151 -138z m280
-2398 c209 -101 290 -367 173 -570 -14 -23 -22 -47 -18 -54 4 -7 3 -8 -5 -4
-12 8 -58 -41 -53 -57 1 -5 -2 -6 -8 -2 -5 3 -25 -5 -42 -18 -56 -42 -124 -61
-223 -61 -79 0 -97 4 -149 30 -90 44 -150 104 -193 192 -36 73 -38 80 -38 176
1 123 24 190 92 266 95 106 174 141 308 137 77 -3 99 -8 156 -35z m27 -1409
c280 -912 412 -1334 417 -1343 4 -6 -220 -10 -609 -10 l-615 0 14 43 c8 23
125 402 260 842 135 440 251 815 256 833 l11 32 71 0 72 0 123 -397z m1472
-1748 l0 -145 -1665 0 -1665 0 0 145 0 145 1665 0 1665 0 0 -145z m280 -540
l0 -145 -1950 0 -1950 0 0 145 0 145 1950 0 1950 0 0 -145z"/>
</g>
</svg>
