<?xml version="1.0" standalone="no"?>
<!DOCTYPE svg PUBLIC "-//W3C//DTD SVG 20010904//EN"
 "http://www.w3.org/TR/2001/REC-SVG-20010904/DTD/svg10.dtd">
<svg version="1.0" xmlns="http://www.w3.org/2000/svg"
 width="920.000000pt" height="512.000000pt" viewBox="0 0 920.000000 512.000000"
 preserveAspectRatio="xMidYMid meet">
<metadata>
Created by potrace 1.16, written by Peter Selinger 2001-2019
</metadata>
<g transform="translate(0.000000,512.000000) scale(0.100000,-0.100000)"
fill="#000000" stroke="none">
<path d="M4853 5108 c-23 -11 -53 -64 -53 -92 0 -30 28 -84 48 -95 12 -6 78
-23 149 -37 333 -67 647 -216 898 -426 365 -304 596 -691 696 -1163 17 -77 36
-150 44 -162 21 -32 77 -47 120 -33 48 16 75 53 75 105 0 81 -55 313 -110 462
-271 744 -912 1291 -1685 1438 -92 17 -150 18 -182 3z"/>
<path d="M4813 4468 c-25 -12 -53 -65 -53 -101 0 -13 10 -39 23 -58 20 -30 32
-36 112 -57 287 -72 491 -182 679 -367 93 -92 155 -169 219 -275 79 -131 114
-222 179 -465 26 -96 128 -126 191 -55 35 39 35 76 2 206 -97 382 -330 714
-655 934 -241 162 -600 285 -697 238z"/>
<path d="M2933 4393 c-61 -63 -178 -220 -242 -326 -165 -274 -276 -607 -312
-936 -16 -152 -6 -459 20 -606 78 -445 276 -842 580 -1168 l62 -65 -241 -641
c-132 -353 -240 -643 -240 -646 0 -3 385 -5 855 -5 470 0 855 3 855 8 0 4 -54
169 -120 366 -109 329 -117 358 -97 353 371 -91 782 -88 1144 8 287 76 579
225 823 419 117 93 130 110 130 171 l0 49 -651 652 -652 652 27 34 c53 71 73
188 47 285 -25 92 -121 188 -214 214 -94 26 -202 10 -278 -41 l-44 -29 -650
649 -651 650 -52 0 c-50 0 -55 -3 -99 -47z m2912 -3089 c-16 -14 -73 -54 -126
-89 -236 -157 -514 -264 -810 -311 -142 -23 -456 -23 -599 0 -887 142 -1558
815 -1697 1702 -21 135 -23 440 -4 569 49 337 180 657 381 932 l45 62 1420
-1420 1420 -1420 -30 -25z m-2562 -212 c119 -88 305 -195 432 -249 l50 -21 98
-294 c53 -161 97 -297 97 -301 0 -4 -243 -7 -541 -7 -511 0 -541 1 -534 18 5
14 298 794 326 870 5 12 11 22 14 22 3 0 29 -17 58 -38z"/>
<path d="M4741 3824 c-30 -22 -52 -75 -45 -111 10 -52 35 -72 137 -107 121
-42 191 -83 275 -161 107 -99 176 -210 217 -350 25 -89 77 -124 151 -104 44
13 74 52 74 99 0 44 -39 170 -76 243 -115 226 -334 414 -568 486 -82 25 -133
27 -165 5z"/>
</g>
</svg>
