<?xml version="1.0" standalone="no"?>
<!DOCTYPE svg PUBLIC "-//W3C//DTD SVG 20010904//EN"
 "http://www.w3.org/TR/2001/REC-SVG-20010904/DTD/svg10.dtd">
<svg version="1.0" xmlns="http://www.w3.org/2000/svg"
 width="360.000000pt" height="360.000000pt" viewBox="0 0 360.000000 360.000000"
 preserveAspectRatio="xMidYMid meet">
<metadata>
Created by potrace 1.16, written by Peter Selinger 2001-2019
</metadata>
<g transform="translate(0.000000,360.000000) scale(0.100000,-0.100000)"
fill="#000000" stroke="none">
<path d="M1671 3414 c-91 -24 -150 -82 -177 -171 -30 -99 -12 -302 46 -520 41
-152 40 -173 -10 -227 -50 -54 -120 -92 -291 -157 -157 -59 -204 -85 -249
-135 -82 -94 -95 -175 -63 -399 26 -185 24 -539 -6 -845 -27 -286 -25 -366 14
-463 54 -133 152 -206 378 -282 164 -54 265 -69 487 -69 218 0 317 14 479 66
224 71 332 151 386 285 40 99 41 174 10 528 -30 342 -30 577 -1 785 23 159 21
245 -8 306 -28 60 -74 115 -121 144 -19 12 -103 48 -187 81 -171 66 -244 107
-294 162 -43 47 -44 74 -4 221 59 222 76 419 44 525 -23 77 -89 141 -170 164
-73 21 -189 21 -263 1z m224 -159 c17 -7 46 -27 64 -46 89 -89 95 -221 13
-311 -47 -52 -102 -78 -170 -78 -174 -1 -283 173 -206 328 54 109 183 155 299
107z m59 -1325 c182 -46 322 -162 406 -335 46 -96 60 -159 60 -268 -1 -348
-272 -619 -620 -620 -346 0 -619 272 -620 620 0 110 14 172 62 273 33 69 56
100 122 165 49 49 105 93 143 113 134 70 300 90 447 52z"/>
<path d="M1725 3217 c-39 -18 -93 -79 -101 -115 -3 -15 -7 -32 -9 -39 -8 -24
23 -114 46 -140 31 -33 95 -62 137 -63 40 0 99 24 130 53 38 35 53 74 53 133
0 64 -19 103 -74 147 -30 25 -49 31 -95 34 -34 2 -69 -2 -87 -10z m141 -43
c47 -23 74 -70 74 -132 0 -43 -5 -57 -31 -87 -61 -70 -157 -70 -218 0 -64 73
-34 186 59 227 27 12 81 8 116 -8z"/>
<path d="M1773 3143 c-12 -2 -34 -18 -49 -36 -22 -26 -25 -38 -21 -71 12 -84
108 -117 168 -57 69 70 2 182 -98 164z"/>
<path d="M1683 1816 c-128 -31 -270 -141 -327 -253 -172 -341 66 -734 444
-734 284 0 499 216 500 502 0 319 -306 560 -617 485z m280 -133 c84 -40 150
-106 190 -191 29 -61 32 -75 32 -167 0 -88 -3 -107 -27 -157 -37 -80 -107
-152 -187 -191 -61 -30 -72 -32 -171 -32 -93 0 -112 3 -162 27 -80 37 -152
107 -191 187 -30 61 -32 73 -32 166 0 92 3 106 32 167 37 79 101 147 172 183
71 36 115 45 202 41 60 -2 89 -9 142 -33z"/>
<path d="M1704 1579 c-221 -85 -232 -390 -18 -495 48 -24 63 -26 128 -22 56 4
85 11 119 31 198 116 174 407 -40 487 -67 25 -123 25 -189 -1z m163 -184 c32
-32 35 -39 30 -78 -16 -118 -178 -118 -194 0 -5 39 -2 46 30 78 25 25 44 35
67 35 23 0 42 -10 67 -35z"/>
</g>
</svg>
