<?xml version="1.0" standalone="no"?>
<!DOCTYPE svg PUBLIC "-//W3C//DTD SVG 20010904//EN"
 "http://www.w3.org/TR/2001/REC-SVG-20010904/DTD/svg10.dtd">
<svg version="1.0" xmlns="http://www.w3.org/2000/svg"
 width="890.000000pt" height="800.000000pt" viewBox="0 0 890.000000 800.000000"
 preserveAspectRatio="xMidYMid meet">
<metadata>
Created by potrace 1.16, written by Peter Selinger 2001-2019
</metadata>
<g transform="translate(0.000000,800.000000) scale(0.100000,-0.100000)"
fill="#000000" stroke="none">
<path d="M4388 7571 l-33 -29 -3 -170 -3 -170 -82 -7 c-264 -21 -478 -57 -663
-109 -787 -223 -1430 -703 -1869 -1396 -142 -224 -288 -556 -364 -825 -60
-213 -79 -332 -117 -712 l-5 -53 -154 0 c-168 0 -195 -6 -221 -46 -28 -42 -22
-93 15 -126 l31 -28 164 0 164 0 6 -47 c3 -27 8 -86 11 -133 8 -113 50 -371
81 -495 79 -312 203 -607 379 -899 125 -208 360 -498 531 -655 557 -512 1203
-798 1946 -862 l147 -12 3 -169 3 -170 33 -29 c18 -16 44 -29 58 -29 33 0 81
25 94 49 6 11 10 90 10 184 l0 164 148 12 c859 71 1620 457 2181 1106 186 216
311 406 446 680 180 365 276 707 313 1118 l17 187 168 0 169 0 29 29 c23 23
29 38 29 71 0 33 -6 48 -29 71 l-29 29 -171 0 -171 0 0 44 c0 24 -7 108 -15
187 -52 497 -216 967 -485 1390 -250 394 -629 767 -1022 1005 -446 271 -908
421 -1430 464 l-148 13 0 164 c0 94 -4 173 -10 184 -13 24 -61 49 -94 49 -14
0 -40 -13 -58 -29z m-38 -1170 l0 -400 -47 -5 c-354 -43 -584 -114 -844 -261
-341 -193 -648 -525 -815 -881 -103 -220 -184 -529 -184 -703 l0 -51 -403 0
-402 0 6 101 c47 687 357 1345 861 1824 492 468 1105 730 1806 774 l22 1 0
-399z m464 373 c792 -97 1528 -556 1971 -1229 136 -207 212 -358 301 -598 78
-211 144 -518 159 -744 l7 -103 -400 0 -399 0 -7 73 c-68 702 -479 1305 -1101
1615 -194 97 -424 169 -615 191 -52 6 -114 14 -137 17 l-43 5 0 400 0 400 73
-6 c39 -4 126 -13 191 -21z m-464 -1538 l0 -363 -62 -13 c-227 -44 -437 -184
-563 -375 -57 -86 -119 -232 -130 -305 -13 -89 28 -80 -376 -80 l-359 0 0 39
c0 50 35 234 61 323 73 248 227 496 427 689 251 243 566 392 922 438 36 5 68
9 73 10 4 0 7 -163 7 -363z m427 329 c295 -55 591 -218 820 -451 251 -256 404
-585 448 -961 l6 -53 -363 0 -363 0 -21 98 c-70 319 -332 581 -655 654 l-99
22 0 356 c0 196 2 359 5 362 6 6 117 -7 222 -27z m-2323 -1677 c2 -7 9 -66 15
-130 44 -435 270 -886 601 -1201 336 -320 737 -501 1223 -552 l57 -6 0 -399 0
-399 -82 5 c-457 29 -937 187 -1318 432 -237 152 -525 410 -684 612 -367 467
-575 1013 -608 1603 l-3 47 398 0 c309 0 398 -3 401 -12z m1131 -15 c37 -173
64 -245 140 -358 126 -190 321 -323 543 -371 l82 -17 0 -362 0 -361 -82 9
c-243 25 -481 112 -703 258 -141 92 -341 290 -434 428 -77 115 -158 283 -200
411 -34 105 -71 289 -71 351 l0 39 360 0 360 0 5 -27z m2459 -35 c-34 -359
-216 -732 -481 -990 -249 -242 -638 -420 -963 -440 l-45 -3 -3 362 -2 362 47
7 c352 51 668 366 718 717 l7 47 364 0 364 0 -6 -62z m1206 40 c0 -65 -23
-260 -46 -388 -168 -929 -812 -1721 -1694 -2083 -261 -107 -580 -180 -877
-202 l-83 -5 0 399 0 400 58 6 c319 33 574 111 822 251 461 260 799 687 944
1192 32 110 76 355 76 425 l0 27 400 0 400 0 0 -22z"/>
</g>
</svg>
