<?xml version="1.0" standalone="no"?>
<!DOCTYPE svg PUBLIC "-//W3C//DTD SVG 20010904//EN"
 "http://www.w3.org/TR/2001/REC-SVG-20010904/DTD/svg10.dtd">
<svg version="1.0" xmlns="http://www.w3.org/2000/svg"
 width="900.000000pt" height="740.000000pt" viewBox="0 0 900.000000 740.000000"
 preserveAspectRatio="xMidYMid meet">
<metadata>
Created by potrace 1.16, written by Peter Selinger 2001-2019
</metadata>
<g transform="translate(0.000000,740.000000) scale(0.100000,-0.100000)"
fill="#000000" stroke="none">
<path d="M3947 7380 c-362 -66 -602 -142 -869 -276 -420 -209 -808 -564 -1036
-948 -120 -201 -232 -495 -253 -665 -12 -104 -28 -1871 -28 -3288 -1 -557 -4
-1013 -8 -1013 -5 0 -35 107 -67 238 -102 407 -184 708 -204 748 -24 48 -47
69 -95 89 -103 43 -226 -16 -258 -124 -13 -43 0 -101 184 -851 52 -212 98
-405 102 -429 l7 -44 -33 21 c-19 11 -103 69 -188 128 -260 181 -307 204 -379
185 -65 -18 -127 -99 -138 -184 -13 -90 18 -124 294 -321 83 -60 150 -112 147
-114 -2 -2 -235 -8 -516 -13 l-513 -9 -28 -27 c-15 -15 -38 -46 -49 -71 -39
-79 -10 -191 62 -239 l39 -25 1262 -9 c1624 -10 4632 -10 6246 0 l1262 9 36
27 c45 34 73 95 74 158 0 58 -15 89 -72 144 l-43 42 -545 2 c-300 0 -659 3
-798 6 -240 6 -253 7 -235 23 10 9 153 113 318 230 470 334 553 400 579 454
55 117 -45 266 -179 266 -55 0 -168 -72 -618 -393 -131 -93 -240 -167 -243
-165 -5 6 62 158 236 538 427 932 450 987 429 1062 -36 137 -223 185 -311 80
-39 -47 -124 -220 -358 -727 -116 -253 -231 -500 -255 -550 l-43 -90 -1 310
c-1 171 -6 1118 -11 2105 l-9 1796 -36 133 c-148 558 -490 1023 -1002 1361
-240 159 -635 324 -909 379 -143 29 -383 50 -629 56 -180 4 -225 2 -318 -15z
m733 -400 c516 -91 963 -328 1305 -693 221 -235 343 -454 436 -781 l39 -139 0
-2418 0 -2418 -522 -3 c-288 -2 -1258 -4 -2157 -6 l-1633 -3 5 2363 c4 1505 9
2403 16 2473 22 239 138 526 296 736 266 355 623 623 1029 774 128 47 376 110
491 124 50 6 101 13 115 15 14 3 122 3 240 1 166 -2 244 -8 340 -25z"/>
<path d="M4255 6193 c-91 -37 -121 -75 -130 -165 -7 -72 -14 -381 -15 -615 l0
-191 -417 -4 c-468 -4 -467 -3 -517 -76 -54 -79 -58 -124 -18 -196 31 -57 63
-83 118 -98 22 -5 215 -12 437 -15 286 -4 397 -9 397 -17 0 -6 0 -462 0 -1014
l0 -1002 35 -39 c44 -49 125 -85 175 -78 56 7 108 36 138 75 24 32 27 45 33
161 4 69 8 528 8 1019 l1 892 293 1 c160 0 353 4 428 8 117 6 141 11 174 31
48 30 74 87 75 163 0 70 -16 103 -72 151 l-42 36 -427 0 -427 0 -5 408 c-3
274 -8 419 -16 444 -18 57 -56 95 -117 117 -64 25 -58 24 -109 4z"/>
</g>
</svg>
