<?xml version="1.0" standalone="no"?>
<!DOCTYPE svg PUBLIC "-//W3C//DTD SVG 20010904//EN"
 "http://www.w3.org/TR/2001/REC-SVG-20010904/DTD/svg10.dtd">
<svg version="1.0" xmlns="http://www.w3.org/2000/svg"
 width="104.000000pt" height="102.000000pt" viewBox="0 0 104.000000 102.000000"
 preserveAspectRatio="xMidYMid meet">
<metadata>
Created by potrace 1.16, written by Peter Selinger 2001-2019
</metadata>
<g transform="translate(0.000000,102.000000) scale(0.100000,-0.100000)"
fill="#000000" stroke="none">
<path d="M155 983 c-41 -6 -89 -45 -109 -86 -14 -31 -16 -82 -16 -399 0 -405
0 -408 70 -456 33 -22 35 -22 415 -22 530 0 485 -44 485 478 0 404 -1 409 -66
458 l-37 29 -356 1 c-196 1 -369 -1 -386 -3z m229 -213 c40 0 98 30 117 61 4
7 23 -2 53 -25 65 -49 116 -50 180 -2 52 41 56 38 86 -49 40 -117 20 -245 -57
-363 -37 -54 -183 -198 -227 -221 -24 -13 -29 -11 -80 27 -213 161 -301 345
-252 527 7 28 20 65 30 83 l17 32 46 -35 c35 -27 55 -35 87 -35z"/>
<path d="M474 754 c-50 -31 -125 -32 -172 -4 -18 11 -34 20 -37 20 -4 0 -25
-68 -25 -82 0 -5 124 -8 275 -8 271 0 275 0 275 21 0 16 -14 53 -25 67 -1 2
-19 -7 -40 -19 -52 -31 -119 -29 -171 4 l-40 25 -40 -24z"/>
<path d="M234 590 c18 -111 80 -212 191 -309 88 -77 86 -77 142 -32 122 96
214 231 229 334 l6 47 -287 0 -288 0 7 -40z"/>
</g>
</svg>
