<?xml version="1.0" standalone="no"?>
<!DOCTYPE svg PUBLIC "-//W3C//DTD SVG 20010904//EN"
 "http://www.w3.org/TR/2001/REC-SVG-20010904/DTD/svg10.dtd">
<svg version="1.0" xmlns="http://www.w3.org/2000/svg"
 width="104.000000pt" height="102.000000pt" viewBox="0 0 104.000000 102.000000"
 preserveAspectRatio="xMidYMid meet">
<metadata>
Created by potrace 1.16, written by Peter Selinger 2001-2019
</metadata>
<g transform="translate(0.000000,102.000000) scale(0.100000,-0.100000)"
fill="#000000" stroke="none">
<path d="M205 933 c-41 -6 -89 -45 -109 -86 -14 -30 -16 -79 -16 -349 0 -349
2 -359 70 -406 33 -22 37 -22 365 -22 467 0 435 -31 435 428 0 349 -2 359 -66
408 l-37 29 -306 1 c-168 1 -319 0 -336 -3z m135 -73 c21 -16 42 -30 47 -30 5
0 23 14 41 30 28 25 41 30 85 30 43 -1 58 -6 87 -30 19 -17 39 -30 45 -30 6 0
26 13 45 30 29 24 44 29 86 30 60 0 67 -6 94 -85 16 -45 20 -84 20 -176 0
-128 -16 -190 -68 -274 -33 -52 -131 -154 -197 -205 -47 -36 -57 -40 -110 -40
-52 0 -63 4 -111 40 -125 94 -212 204 -244 309 -36 114 -24 306 24 399 15 30
20 32 67 32 42 0 58 -6 89 -30z"/>
<path d="M306 558 c12 -40 36 -82 73 -128 43 -54 124 -130 138 -130 33 0 213
226 213 268 0 9 -50 12 -216 12 l-215 0 7 -22z"/>
</g>
</svg>
