<?xml version="1.0" standalone="no"?>
<!DOCTYPE svg PUBLIC "-//W3C//DTD SVG 20010904//EN"
 "http://www.w3.org/TR/2001/REC-SVG-20010904/DTD/svg10.dtd">
<svg version="1.0" xmlns="http://www.w3.org/2000/svg"
 width="140.000000pt" height="130.000000pt" viewBox="0 0 140.000000 130.000000"
 preserveAspectRatio="xMidYMid meet">
<metadata>
Created by potrace 1.16, written by Peter Selinger 2001-2019
</metadata>
<g transform="translate(0.000000,130.000000) scale(0.100000,-0.100000)"
fill="#000000" stroke="none">
<path d="M694 1191 c6 -100 5 -111 -11 -120 -10 -5 -95 -61 -187 -125 l-169
-116 -154 0 -153 0 0 -45 0 -45 685 0 685 0 0 45 0 45 -153 0 -152 0 -188 128
-187 127 0 108 c0 73 -4 107 -11 107 -9 0 -10 -30 -5 -109z m74 -257 c29 -33
28 -76 -2 -110 -67 -79 -189 19 -130 104 33 48 92 50 132 6z"/>
<path d="M720 1226 c0 -61 1 -64 27 -71 16 -4 34 -12 42 -18 8 -7 41 -12 73
-12 l59 0 -3 70 -3 70 -30 -1 c-16 -1 -39 -5 -50 -8 -14 -5 -28 0 -44 13 -13
12 -35 21 -48 21 -22 0 -23 -4 -23 -64z"/>
<path d="M683 713 l-573 -3 0 -290 0 -290 194 0 c106 0 214 -3 240 -6 l46 -7
0 142 0 141 55 0 54 0 4 -137 3 -138 2 138 2 137 55 0 54 0 3 -138 c2 -102 6
-137 16 -136 6 1 113 2 237 3 l225 1 0 295 0 295 -22 -2 c-13 -2 -281 -4 -595
-5z"/>
<path d="M60 60 l0 -40 645 0 645 0 0 40 0 40 -645 0 -645 0 0 -40z"/>
</g>
</svg>
