<?xml version="1.0" encoding="iso-8859-1"?>
<!-- Generator: Adobe Illustrator 16.0.0, SVG Export Plug-In . SVG Version: 6.00 Build 0)  -->
<!DOCTYPE svg PUBLIC "-//W3C//DTD SVG 1.1//EN" "http://www.w3.org/Graphics/SVG/1.1/DTD/svg11.dtd">
<svg version="1.1" id="Capa_1" xmlns="http://www.w3.org/2000/svg" xmlns:xlink="http://www.w3.org/1999/xlink" x="0px" y="0px"
	 width="69.585px" height="69.584px" viewBox="0 0 69.585 69.584" style="enable-background:new 0 0 69.585 69.584;"
	 xml:space="preserve">
<g>
	<g>
		<path d="M68.661,31.949c-0.002-0.036-0.004-0.071-0.011-0.107c-0.004-0.042-0.012-0.085-0.02-0.127s-0.014-0.085-0.023-0.126
			c-0.008-0.035-0.018-0.069-0.024-0.104c-0.014-0.047-0.024-0.094-0.041-0.14c-0.01-0.029-0.021-0.059-0.03-0.088
			c-0.021-0.048-0.037-0.094-0.058-0.141c-0.015-0.03-0.026-0.061-0.043-0.091c-0.021-0.042-0.041-0.083-0.062-0.124
			c-0.021-0.035-0.041-0.068-0.062-0.104c-0.021-0.033-0.041-0.067-0.062-0.1c-0.026-0.038-0.055-0.076-0.084-0.113
			c-0.021-0.026-0.041-0.053-0.062-0.078c-0.03-0.039-0.063-0.075-0.103-0.111c-0.021-0.023-0.041-0.047-0.063-0.068
			c-0.035-0.034-0.071-0.066-0.106-0.099c-0.027-0.023-0.056-0.046-0.08-0.068c-0.035-0.026-0.068-0.052-0.104-0.077
			c-0.037-0.025-0.069-0.05-0.106-0.074c-0.028-0.019-0.062-0.036-0.092-0.055c-0.044-0.027-0.091-0.052-0.136-0.075
			c-0.013-0.006-0.022-0.014-0.037-0.021L35.454,14.281c-0.708-0.346-1.533-0.346-2.237,0L1.421,29.86
			c-0.013,0.006-0.023,0.015-0.036,0.021c-0.046,0.024-0.091,0.048-0.136,0.075c-0.031,0.019-0.062,0.035-0.091,0.055
			c-0.036,0.024-0.072,0.05-0.106,0.074c-0.035,0.025-0.07,0.051-0.103,0.077c-0.027,0.022-0.054,0.045-0.08,0.068
			c-0.037,0.032-0.073,0.064-0.107,0.099c-0.023,0.021-0.044,0.045-0.065,0.068c-0.035,0.036-0.069,0.073-0.101,0.111
			c-0.022,0.025-0.042,0.052-0.062,0.078c-0.028,0.037-0.058,0.075-0.084,0.113c-0.022,0.032-0.043,0.066-0.064,0.1
			c-0.021,0.035-0.043,0.068-0.062,0.104c-0.022,0.041-0.043,0.082-0.063,0.124c-0.015,0.03-0.03,0.061-0.044,0.091
			c-0.02,0.047-0.037,0.093-0.055,0.141c-0.011,0.029-0.023,0.059-0.033,0.088c-0.015,0.046-0.027,0.093-0.04,0.14
			c-0.01,0.034-0.019,0.068-0.026,0.104c-0.009,0.041-0.017,0.084-0.024,0.126c-0.007,0.043-0.015,0.085-0.02,0.127
			c-0.004,0.036-0.007,0.072-0.01,0.107c-0.004,0.051-0.007,0.103-0.007,0.153C0.002,32.118,0,32.131,0,32.145v33.49
			c0,1.404,1.139,2.543,2.543,2.543h63.588c1.404,0,2.543-1.139,2.543-2.543v-33.49c0-0.014-0.002-0.027-0.002-0.041
			C68.666,32.052,68.664,32,68.661,31.949z M63.582,63.09h-58.5V33.73l29.25-14.332l29.25,14.332V63.09z"/>
		<path d="M22.378,43.305c-2.316-0.121-3.95,0.768-5.071,2.012v-5.25c6.297-1.004,6.078-6.996,6.075-7.059
			c-0.027-0.543-0.461-0.977-1.004-1.005c-5.193-0.271-6.963,4.526-7.186,7.026c-0.001,0.017,0.001,0.028,0,0.045
			c0,0.019-0.005,0.033-0.005,0.052v0.459c-1.048-0.994-2.61-1.779-4.945-1.938c-0.31-0.021-0.613,0.094-0.83,0.313
			c-0.217,0.221-0.327,0.525-0.299,0.836c0.207,2.312,1.75,6.58,6.074,7.002v5.088c-1.048-0.994-2.61-1.776-4.945-1.938
			c-0.31-0.021-0.613,0.096-0.83,0.314c-0.217,0.223-0.327,0.525-0.299,0.836c0.207,2.312,1.75,6.578,6.074,7v3.209
			c0,0.588,0.474,1.062,1.06,1.062c0.585,0,1.06-0.475,1.06-1.062v-8.939c6.297-1.004,6.079-6.994,6.075-7.061
			C23.355,43.768,22.921,43.334,22.378,43.305z M21.168,34.178c-0.236,1.185-1.02,3.016-3.579,3.67
			C17.997,36.487,18.96,34.558,21.168,34.178z M11.511,39.981c2.57,0.65,3.351,2.477,3.583,3.67
			C12.882,43.274,11.919,41.34,11.511,39.981z M11.511,51.281c2.57,0.649,3.351,2.476,3.583,3.672
			C12.882,54.574,11.919,52.643,11.511,51.281z M17.589,49.151c0.408-1.359,1.371-3.289,3.579-3.668
			C20.932,46.667,20.148,48.497,17.589,49.151z"/>
		<path d="M32.216,39.074c-0.001,0.019-0.005,0.033-0.005,0.052v0.459c-1.047-0.994-2.61-1.777-4.946-1.938
			c-0.309-0.021-0.613,0.094-0.83,0.314c-0.217,0.221-0.326,0.526-0.299,0.836c0.207,2.312,1.75,6.58,6.074,7.002v5.088
			c-1.047-0.994-2.61-1.777-4.946-1.938c-0.309-0.021-0.613,0.096-0.829,0.314c-0.217,0.223-0.327,0.527-0.299,0.836
			c0.207,2.312,1.75,6.58,6.074,7v3.211c0,0.586,0.474,1.061,1.06,1.061c0.585,0,1.06-0.475,1.06-1.061V51.37
			c6.297-1.004,6.079-6.994,6.075-7.059c-0.027-0.545-0.461-0.979-1.005-1.006c-2.315-0.121-3.948,0.768-5.069,2.01v-5.248
			c6.296-1.004,6.078-6.995,6.076-7.059c-0.027-0.543-0.461-0.977-1.005-1.005c-5.193-0.271-6.963,4.526-7.187,7.026
			C32.214,39.045,32.217,39.061,32.216,39.074z M28.535,39.981c2.57,0.65,3.352,2.477,3.583,3.67
			C29.907,43.274,28.943,41.34,28.535,39.981z M28.535,51.281c2.57,0.649,3.352,2.476,3.583,3.672
			C29.907,54.574,28.943,52.643,28.535,51.281z M38.191,45.483c-0.235,1.186-1.02,3.016-3.578,3.668
			C35.021,47.79,35.984,45.862,38.191,45.483z M38.191,34.178c-0.235,1.185-1.02,3.016-3.578,3.67
			C35.021,36.487,35.984,34.558,38.191,34.178z"/>
		<path d="M44.311,49.658c-0.312-0.021-0.612,0.095-0.83,0.313c-0.217,0.224-0.325,0.527-0.299,0.836
			c0.207,2.312,1.748,6.58,6.072,7.002v3.209c0,0.587,0.477,1.062,1.061,1.062c0.586,0,1.062-0.476,1.062-1.062v-8.94
			c6.298-1.004,6.078-6.993,6.074-7.062c-0.024-0.543-0.461-0.977-1.004-1.004c-2.313-0.123-3.949,0.769-5.07,2.011v-5.248
			c6.3-1.004,6.078-6.996,6.076-7.06c-0.026-0.543-0.461-0.978-1.004-1.006c-5.19-0.272-6.964,4.526-7.188,7.026
			c0,0.018,0.002,0.029,0.002,0.045c-0.002,0.018-0.006,0.031-0.006,0.051v0.461c-1.047-0.994-2.609-1.777-4.945-1.939
			c-0.312-0.02-0.612,0.095-0.83,0.314c-0.217,0.223-0.325,0.525-0.299,0.836c0.207,2.312,1.748,6.58,6.072,7.002v5.088
			C48.207,50.604,46.646,49.821,44.311,49.658z M45.579,51.99c2.569,0.649,3.353,2.476,3.584,3.672
			C46.95,55.283,45.987,53.352,45.579,51.99z M55.237,46.192c-0.236,1.186-1.021,3.016-3.58,3.668
			C52.066,48.499,53.028,46.571,55.237,46.192z M55.237,34.888c-0.236,1.185-1.021,3.017-3.58,3.669
			C52.066,37.197,53.028,35.267,55.237,34.888z M45.579,40.69c2.569,0.65,3.353,2.477,3.584,3.672
			C46.95,43.983,45.987,42.049,45.579,40.69z"/>
		<path d="M64.92,11.226c0-2.843-2.312-5.155-5.154-5.155s-5.153,2.313-5.153,5.155c0,2.844,2.312,5.155,5.153,5.155
			S64.92,14.07,64.92,11.226z M59.766,14.262c-1.674,0-3.035-1.361-3.035-3.036c0-1.673,1.361-3.035,3.035-3.035
			c1.676,0,3.037,1.362,3.037,3.035C62.801,12.901,61.439,14.262,59.766,14.262z"/>
		<path d="M59.766,5.647c0.586,0,1.062-0.474,1.062-1.06V2.468c0-0.586-0.476-1.061-1.062-1.061s-1.061,0.475-1.061,1.061v2.119
			C58.705,5.173,59.18,5.647,59.766,5.647z"/>
		<path d="M58.705,17.865v2.119c0,0.586,0.475,1.061,1.061,1.061c0.584,0,1.06-0.475,1.06-1.061v-2.119
			c0-0.586-0.474-1.061-1.06-1.061S58.705,17.28,58.705,17.865z"/>
		<path d="M54.323,7.281c0.207,0.207,0.479,0.311,0.75,0.311s0.541-0.104,0.75-0.311c0.414-0.414,0.414-1.085,0-1.499l-1.5-1.499
			c-0.414-0.413-1.084-0.413-1.498,0c-0.414,0.414-0.414,1.086,0,1.499L54.323,7.281z"/>
		<path d="M65.209,18.169c0.207,0.207,0.479,0.31,0.75,0.31s0.541-0.103,0.748-0.31c0.416-0.414,0.416-1.085,0-1.498l-1.498-1.499
			c-0.414-0.415-1.086-0.415-1.5,0c-0.414,0.414-0.414,1.084,0,1.499L65.209,18.169z"/>
		<path d="M51.008,12.286h2.119c0.584,0,1.061-0.475,1.061-1.061c0-0.585-0.477-1.06-1.061-1.06h-2.119
			c-0.586,0-1.061,0.475-1.061,1.06C49.948,11.812,50.422,12.286,51.008,12.286z"/>
		<path d="M68.523,10.166h-2.118c-0.586,0-1.062,0.475-1.062,1.06c0,0.586,0.475,1.061,1.062,1.061h2.118
			c0.586,0,1.062-0.475,1.062-1.061C69.584,10.641,69.109,10.166,68.523,10.166z"/>
		<path d="M54.323,15.172l-1.5,1.499c-0.414,0.413-0.414,1.084,0,1.498c0.207,0.207,0.479,0.31,0.75,0.31s0.543-0.103,0.75-0.31
			l1.498-1.498c0.413-0.415,0.413-1.085,0-1.499C55.407,14.757,54.734,14.757,54.323,15.172z"/>
		<path d="M64.459,7.592c0.271,0,0.543-0.104,0.75-0.311l1.498-1.499c0.416-0.413,0.416-1.085,0-1.499
			c-0.414-0.413-1.084-0.413-1.498,0l-1.5,1.499c-0.414,0.414-0.414,1.085,0,1.499C63.918,7.488,64.189,7.592,64.459,7.592z"/>
	</g>
</g>
<g>
</g>
<g>
</g>
<g>
</g>
<g>
</g>
<g>
</g>
<g>
</g>
<g>
</g>
<g>
</g>
<g>
</g>
<g>
</g>
<g>
</g>
<g>
</g>
<g>
</g>
<g>
</g>
<g>
</g>
</svg>
