<?xml version="1.0" encoding="iso-8859-1"?>
<!-- Generator: Adobe Illustrator 19.0.0, SVG Export Plug-In . SVG Version: 6.00 Build 0)  -->
<svg version="1.1" id="Capa_1" xmlns="http://www.w3.org/2000/svg" xmlns:xlink="http://www.w3.org/1999/xlink" x="0px" y="0px"
	 viewBox="0 0 480.001 480.001" style="enable-background:new 0 0 480.001 480.001;" xml:space="preserve">
<path style="fill:#D3D3D3;" d="M256.001,399.993h216v72h-216V399.993z"/>
<g>
	<path style="fill:#ED4720;" d="M24.001,303.993h72v72h-72V303.993z"/>
	<path style="fill:#ED4720;" d="M152.001,55.993h320v32h-320V55.993z"/>
</g>
<path style="fill:#F5FAFC;" d="M328.001,87.993h72l48,312h-168L328.001,87.993z"/>
<path style="fill:#55D5F2;" d="M136.001,159.993h48v32h-48V159.993z"/>
<path style="fill:#A3EA0A;" d="M112.001,191.993h96v64h-96V191.993z"/>
<path style="fill:#3F4E56;" d="M53.945,465.657c5.432-4.472,10.024-9.664,20.672-9.664c18.656,0,18.656,16,37.312,16
	c18.672,0,18.672-16,37.344-16c11.36,0,15.824,5.896,21.768,10.536c6.968-4.264,12.536-10.752,15.416-18.816l32-71.72H8.001
	l32,71.72C42.681,455.209,47.657,461.393,53.945,465.657L53.945,465.657z"/>
<path style="fill:#55D5F2;" d="M186.633,479.993c-12.296,0-18.72-5.504-23.88-9.92c-4.272-3.664-7.096-6.08-13.488-6.08
	c-6.376,0-9.192,2.416-13.472,6.08c-5.16,4.424-11.576,9.92-23.872,9.92c-12.28,0-18.704-5.504-23.856-9.928
	c-4.256-3.656-7.08-6.072-13.448-6.072c-6.36,0-9.176,2.416-13.44,6.072c-5.16,4.424-11.576,9.928-23.864,9.928
	s-18.712-5.504-23.864-9.928c-4.264-3.656-7.08-6.072-13.448-6.072v-16c12.288,0,18.712,5.504,23.864,9.928
	c4.256,3.656,7.08,6.072,13.448,6.072s9.184-2.416,13.448-6.072c5.16-4.424,11.576-9.928,23.856-9.928
	c12.288,0,18.712,5.504,23.864,9.928c4.256,3.656,7.08,6.072,13.44,6.072c6.376,0,9.192-2.416,13.472-6.08
	c5.16-4.424,11.576-9.92,23.872-9.92c12.304,0,18.728,5.504,23.888,9.92c4.272,3.664,7.096,6.08,13.48,6.08
	c6.392,0,9.208-2.416,13.488-6.08c5.168-4.424,11.584-9.92,23.88-9.92v16c-6.384,0-9.2,2.416-13.48,6.08
	C205.361,474.489,198.937,479.993,186.633,479.993z"/>
<path d="M64.001,327.993h-8c-4.424,0-8,3.576-8,8v8c0,4.424,3.576,8,8,8h8c4.424,0,8-3.576,8-8v-8
	C72.001,331.569,68.425,327.993,64.001,327.993z"/>
<path d="M440.001,423.993h-8c-4.424,0-8,3.576-8,8v8c0,4.424,3.576,8,8,8h8c4.424,0,8-3.576,8-8v-8
	C448.001,427.569,444.425,423.993,440.001,423.993z"/>
<path d="M392.001,423.993h-8c-4.424,0-8,3.576-8,8v8c0,4.424,3.576,8,8,8h8c4.424,0,8-3.576,8-8v-8
	C400.001,427.569,396.425,423.993,392.001,423.993z"/>
<path d="M344.001,423.993h-8c-4.424,0-8,3.576-8,8v8c0,4.424,3.576,8,8,8h8c4.424,0,8-3.576,8-8v-8
	C352.001,427.569,348.425,423.993,344.001,423.993z"/>
<path d="M296.001,423.993h-8c-4.424,0-8,3.576-8,8v8c0,4.424,3.576,8,8,8h8c4.424,0,8-3.576,8-8v-8
	C304.001,427.569,300.425,423.993,296.001,423.993z"/>
<path d="M472.001,47.993h-64v-40c0-2.4-1.08-4.664-2.928-6.184c-1.84-1.512-4.272-2.104-6.64-1.656l-239.224,47.84h-7.208
	c-4.424,0-8,3.576-8,8v32c0,4.424,3.576,8,8,8v56h-16c-4.424,0-8,3.576-8,8v24h-16c-4.424,0-8,3.576-8,8v64c0,4.424,3.576,8,8,8h96
	c4.424,0,8-3.576,8-8v-64c0-4.424-3.576-8-8-8h-16v-24c0-4.424-3.576-8-8-8h-16v-56h150.672l-45.536,296h-17.136
	c-4.424,0-8,3.576-8,8v72c0,4.424,3.576,8,8,8h216c4.424,0,8-3.576,8-8v-72c0-4.424-3.576-8-8-8h-17.136l-45.536-296h62.672
	c4.424,0,8-3.576,8-8v-32C480.001,51.569,476.425,47.993,472.001,47.993L472.001,47.993z M200.001,247.993h-80v-48h16h48h16V247.993
	z M176.001,183.993h-32v-16h8h16h8V183.993z M464.001,79.993h-64h-72h-168v-16h304V79.993z M464.001,463.993h-200v-56h16h168h16
	V463.993z M289.329,391.993l11.736-76.296l136.96,72.08l0.648,4.208L289.329,391.993z M418.249,259.241l16.752,108.872
	l-120.56-63.456L418.249,259.241z M304.801,291.409l13.44-87.352l86.904,43.448L304.801,291.409z M329.889,191.993l72.44-36.216
	l12.072,78.48L329.889,191.993z M322.265,177.913l8.64-56.144l57.584,23.032L322.265,177.913z M333.401,105.537l1.472-9.544h58.264
	l5.48,35.632L333.401,105.537z M392.001,17.753v30.24H240.793L392.001,17.753z"/>
<path d="M218.457,367.993H104.001v-64c0-4.424-3.576-8-8-8h-72c-4.424,0-8,3.576-8,8v64h-8c-2.712,0-5.232,1.376-6.712,3.648
	s-1.696,5.136-0.592,7.608l31.776,71.16c1.752,4.912,4.384,9.352,7.648,13.296c4.424-0.648,7.096-2.736,10.64-5.776
	c1.176-1.008,2.44-2.072,3.8-3.12c-0.2,0.152-0.44,0.296-0.64,0.448c-2.856-2.952-5.08-6.544-6.616-10.8l-26.976-60.464h3.672h72
	h110.128l-27.2,61.024c-1.568,4.384-4.152,8.232-7.576,11.344c-0.104-0.08-0.224-0.168-0.328-0.248
	c0.744,0.608,1.456,1.216,2.136,1.8c4.144,3.56,6.984,5.888,12.984,6.024c3.344-3.936,5.976-8.336,7.616-12.976l32-71.72
	c1.104-2.48,0.88-5.336-0.592-7.608S221.169,367.993,218.457,367.993L218.457,367.993z M32.001,311.993h56v56h-56V311.993z"/>
<g>
</g>
<g>
</g>
<g>
</g>
<g>
</g>
<g>
</g>
<g>
</g>
<g>
</g>
<g>
</g>
<g>
</g>
<g>
</g>
<g>
</g>
<g>
</g>
<g>
</g>
<g>
</g>
<g>
</g>
</svg>
