<?xml version="1.0" standalone="no"?>
<!DOCTYPE svg PUBLIC "-//W3C//DTD SVG 20010904//EN"
 "http://www.w3.org/TR/2001/REC-SVG-20010904/DTD/svg10.dtd">
<svg version="1.0" xmlns="http://www.w3.org/2000/svg"
 width="1300.000000pt" height="1300.000000pt" viewBox="0 0 1300.000000 1300.000000"
 preserveAspectRatio="xMidYMid meet">
<metadata>
Created by potrace 1.16, written by Peter Selinger 2001-2019
</metadata>
<g transform="translate(0.000000,1300.000000) scale(0.100000,-0.100000)"
fill="#000000" stroke="none">
<path d="M5875 12398 c-93 -54 -176 -96 -183 -93 -7 3 -11 1 -7 -4 3 -5 -46
-37 -107 -72 -156 -86 -301 -169 -314 -180 -6 -5 -14 -6 -17 -2 -4 3 -7 1 -7
-6 0 -8 -6 -11 -17 -7 -10 4 -14 4 -10 0 6 -7 -134 -93 -158 -97 -5 -1 -15 -7
-23 -14 -7 -7 -19 -10 -27 -7 -7 3 -18 -3 -23 -13 -12 -22 -67 -55 -76 -46 -3
3 -6 1 -6 -6 0 -7 -4 -9 -10 -6 -5 3 -10 2 -10 -4 0 -10 -38 -27 -52 -23 -5 1
-8 -3 -8 -9 0 -5 -5 -7 -10 -4 -6 3 -13 -1 -16 -9 -3 -9 -10 -13 -15 -10 -5 3
-9 1 -9 -5 0 -5 -10 -13 -22 -17 -13 -4 -25 -10 -28 -14 -5 -7 -197 -121 -295
-175 -180 -99 -333 -185 -403 -226 -45 -27 -84 -49 -87 -49 -2 0 -31 -16 -64
-36 -33 -20 -65 -33 -71 -29 -6 4 -9 2 -8 -4 3 -12 -347 -212 -377 -216 -30
-3 -66 -25 -60 -35 3 -6 -1 -7 -9 -4 -8 3 -19 -2 -25 -14 -5 -10 -31 -30 -58
-44 -63 -33 -194 -107 -260 -146 -29 -17 -53 -28 -53 -24 0 4 -4 2 -8 -3 -4
-6 -45 -33 -92 -59 -47 -27 -101 -58 -120 -69 -19 -11 -53 -30 -75 -43 -22
-12 -64 -35 -93 -51 -28 -16 -49 -33 -45 -38 5 -4 3 -5 -4 -1 -7 4 -29 -4 -50
-17 -21 -13 -112 -66 -203 -117 -91 -51 -199 -112 -240 -135 -122 -70 -372
-211 -415 -235 -22 -12 -107 -61 -190 -107 -241 -137 -250 -142 -259 -141 -5
0 -12 -4 -15 -9 -3 -4 -17 -14 -31 -22 -14 -8 -88 -50 -165 -94 -77 -44 -160
-91 -185 -105 -166 -93 -223 -169 -223 -302 0 -144 104 -264 268 -311 25 -8
7983 -14 7991 -7 6 7 5 356 -2 682 l-7 358 -131 -6 c-72 -4 -258 -16 -413 -27
-155 -11 -293 -18 -306 -15 -37 6 -65 28 -76 56 -5 14 -14 373 -21 810 -6 431
-12 785 -13 785 -3 2 -393 -23 -792 -50 -787 -52 -885 -57 -914 -46 -56 24
-55 15 -63 551 -4 272 -9 500 -10 505 -2 6 -79 -34 -173 -87z"/>
<path d="M1780 8494 c-81 -27 -145 -68 -134 -85 3 -5 0 -9 -6 -9 -6 0 -8 -4
-5 -10 3 -5 2 -10 -4 -10 -6 0 -8 -7 -5 -15 4 -8 1 -15 -5 -15 -7 0 -11 -20
-11 -51 0 -27 4 -48 9 -45 5 4 7 -3 4 -14 -3 -12 1 -22 10 -26 9 -3 14 -11 11
-18 -6 -16 41 -60 55 -51 6 3 14 -1 17 -10 4 -9 13 -14 20 -11 8 3 14 1 14 -3
0 -5 38 -7 84 -4 71 4 84 2 90 -12 5 -13 7 -1771 6 -4482 l0 -83 -87 0 c-50
-1 -97 -6 -109 -13 -66 -39 -105 -89 -110 -144 -8 -84 27 -151 101 -195 40
-23 43 -23 393 -26 288 -2 352 -1 346 10 -5 10 -4 11 7 1 10 -10 97 -13 364
-13 267 0 354 3 364 13 11 10 12 9 7 -1 -6 -11 58 -12 346 -10 l353 3 48 28
c30 18 54 41 64 63 9 19 19 34 22 34 3 0 7 22 9 50 4 60 -30 143 -65 159 -13
6 -23 14 -23 19 0 12 -9 13 -122 19 l-97 4 -3 82 c-2 45 -2 1075 0 2290 l2
2207 88 0 c73 0 93 4 124 23 129 79 127 259 -5 329 l-42 23 -1055 2 c-580 1
-1062 -1 -1070 -3z"/>
<path d="M5435 8491 c-70 -17 -112 -51 -134 -107 -14 -36 -20 -133 -9 -140 5
-3 6 -10 3 -15 -4 -5 -1 -9 6 -9 7 0 10 -3 6 -6 -3 -3 7 -18 22 -32 15 -15 18
-20 6 -12 -12 8 -8 2 8 -13 15 -15 32 -25 37 -22 6 4 10 2 10 -4 0 -6 7 -8 15
-5 8 4 15 1 15 -6 0 -7 8 -9 21 -5 11 4 52 4 90 0 l69 -7 -2 -2282 -3 -2281
-79 3 c-62 3 -87 0 -114 -15 -70 -36 -109 -95 -112 -173 -3 -53 8 -84 45 -128
56 -67 53 -67 443 -70 266 -2 352 0 347 8 -6 9 -2 9 13 1 27 -14 1381 -15
1433 -1 81 23 139 99 139 182 0 64 -23 111 -74 153 -35 28 -46 30 -134 35
l-97 5 -3 114 -3 114 -90 96 c-123 131 -172 228 -178 348 -3 75 0 88 24 136
37 70 116 187 187 274 l58 71 2 1709 3 1708 95 5 c102 6 120 12 162 57 36 37
48 73 48 138 0 45 -5 60 -33 96 -18 24 -48 52 -67 64 -35 20 -46 20 -1090 22
-580 0 -1068 -2 -1085 -6z"/>
<path d="M8870 4553 c-239 -90 -478 -180 -530 -200 -52 -20 -142 -54 -200 -76
-58 -22 -126 -42 -152 -44 -46 -5 -47 -4 -66 34 -10 21 -41 107 -67 191 -27
83 -54 152 -59 152 -6 0 -84 -74 -173 -164 -160 -161 -163 -165 -163 -208 l0
-43 1118 -1119 c614 -615 1125 -1125 1134 -1134 9 -9 14 -20 11 -26 -3 -6 -2
-7 2 -3 12 10 476 -454 468 -467 -3 -6 -2 -7 2 -3 5 4 222 -205 482 -465 467
-467 473 -473 513 -473 39 0 46 6 318 278 153 153 281 274 286 270 4 -4 6 -1
4 7 -2 9 3 14 12 12 8 -2 11 0 7 4 -4 4 160 176 365 381 235 235 379 387 390
410 49 106 -8 225 -124 262 -20 7 -52 9 -70 6 -18 -3 -35 -5 -38 -3 -3 2 -19
-9 -35 -25 -17 -15 -38 -30 -47 -33 -10 -3 -18 -11 -18 -18 0 -7 -13 -22 -30
-34 l-30 -22 -72 73 c-209 212 -531 536 -910 915 -651 650 -689 688 -681 695
3 4 1 7 -6 7 -18 0 -181 172 -174 183 3 6 1 7 -4 4 -6 -4 -22 4 -34 18 -13 13
-29 25 -35 25 -6 0 -108 -36 -225 -81 -377 -141 -357 -135 -386 -119 -35 20
-34 19 -99 225 -30 99 -64 205 -74 235 -10 30 -37 116 -60 190 -24 74 -59 183
-79 241 l-36 106 -435 -164z"/>
<path d="M1950 2780 l-825 -5 -39 -24 c-27 -17 -46 -40 -63 -77 l-24 -53 3
-323 c3 -368 5 -374 86 -432 l44 -31 1346 -2 c1393 -3 1794 -3 4976 -3 l1889
0 -19 21 c-10 12 -44 47 -74 77 -30 31 -65 69 -77 86 -13 16 -23 26 -23 22 0
-5 -24 17 -52 48 -29 30 -197 200 -372 376 l-320 320 -920 0 c-507 0 -1774 1
-2816 3 -1042 1 -2266 0 -2720 -3z"/>
<path d="M515 1433 c-44 -23 -65 -44 -86 -85 -18 -34 -19 -63 -19 -366 0 -358
2 -372 57 -424 54 -52 82 -57 314 -58 118 0 2398 -1 5068 0 l4854 0 -137 131
c-75 73 -161 154 -191 182 -30 27 -52 53 -50 57 5 8 -107 120 -116 117 -11 -3
-219 197 -219 211 0 6 -5 12 -11 12 -18 0 -199 182 -192 193 3 6 2 7 -4 4 -6
-4 -21 5 -33 18 l-23 25 -4591 0 c-4171 -1 -4594 -2 -4621 -17z"/>
</g>
</svg>
