<?xml version="1.0" standalone="no"?>
<!DOCTYPE svg PUBLIC "-//W3C//DTD SVG 20010904//EN"
 "http://www.w3.org/TR/2001/REC-SVG-20010904/DTD/svg10.dtd">
<svg version="1.0" xmlns="http://www.w3.org/2000/svg"
 width="1300.000000pt" height="1300.000000pt" viewBox="0 0 1300.000000 1300.000000"
 preserveAspectRatio="xMidYMid meet">
<metadata>
Created by potrace 1.16, written by Peter Selinger 2001-2019
</metadata>
<g transform="translate(0.000000,1300.000000) scale(0.100000,-0.100000)"
fill="#000000" stroke="none">
<path d="M0 6500 l0 -6500 6500 0 6500 0 0 1475 0 1475 -22 -14 c-13 -7 -68
-26 -123 -41 -157 -41 -322 -91 -555 -166 -226 -72 -356 -109 -505 -140 -134
-28 -135 -28 -135 -42 0 -18 166 -187 184 -187 9 0 16 -8 16 -18 0 -21 33 -56
43 -45 4 3 7 0 7 -7 0 -7 59 -71 130 -143 72 -72 130 -126 130 -121 0 5 4 2
10 -6 7 -11 19 -3 62 39 29 30 67 60 85 67 43 18 105 18 151 -2 41 -16 104
-73 96 -85 -2 -4 0 -10 5 -14 6 -3 13 -25 16 -50 10 -62 -16 -132 -65 -180
-38 -37 -51 -65 -31 -65 12 0 23 -48 16 -71 -8 -24 -54 -37 -67 -18 -7 10 -8
7 -4 -12 5 -21 -4 -35 -45 -78 -29 -30 -47 -57 -43 -64 5 -9 4 -9 -6 0 -11 10
-10 17 4 37 9 15 21 26 26 26 5 0 19 14 31 31 19 27 20 32 7 46 -13 13 -22 8
-71 -39 -31 -29 -63 -66 -71 -83 -10 -20 -16 -24 -16 -12 0 9 -4 17 -10 17 -5
0 -10 -6 -10 -14 0 -7 -9 -16 -20 -19 -28 -7 -25 -27 3 -27 13 0 34 -11 47
-25 13 -14 18 -25 12 -25 -6 0 -14 5 -17 11 -13 20 -49 27 -75 14 -14 -8 -49
-38 -78 -67 l-52 -54 25 -24 c14 -13 25 -28 25 -34 0 -5 -15 5 -33 22 -36 35
-67 35 -67 1 0 -12 5 -16 15 -13 8 4 15 1 15 -5 0 -6 -10 -11 -23 -11 -16 0
-43 -20 -80 -59 l-57 -59 25 -20 c18 -14 22 -23 14 -28 -7 -4 -21 3 -34 18
l-21 24 -19 -25 c-15 -20 -16 -23 -3 -18 9 3 23 0 32 -6 14 -10 10 -12 -20
-14 -35 -2 -58 -18 -48 -34 2 -4 -4 -5 -14 -2 -24 6 -76 -52 -69 -78 6 -24 -9
-25 -22 -2 -5 10 -13 14 -17 10 -5 -4 -3 -16 3 -26 10 -16 9 -18 -7 -14 -24 6
-56 -27 -51 -52 3 -17 1 -18 -13 -5 -15 12 -24 7 -74 -44 -49 -49 -53 -56 -31
-51 15 4 30 2 33 -4 5 -7 -3 -11 -21 -11 -21 0 -44 -17 -100 -76 -71 -75 -84
-99 -62 -121 7 -7 7 -21 1 -44 -7 -22 -11 -27 -11 -14 -3 35 -13 100 -17 104
-2 2 -26 -17 -53 -42 -43 -40 -56 -47 -91 -47 -33 0 -48 6 -72 30 -16 17 -33
30 -36 30 -4 0 -18 16 -32 34 -14 19 -27 34 -30 33 -3 -1 -57 51 -120 116 -63
64 -120 117 -127 117 -7 0 -10 6 -8 13 3 6 -11 23 -29 37 -19 14 -32 28 -30
32 3 4 -2 11 -11 15 -15 9 -192 178 -197 189 -6 12 -178 179 -188 182 -6 2 -8
8 -4 13 3 5 1 9 -4 9 -6 0 -39 29 -75 65 -36 36 -70 65 -76 65 -6 0 -11 7 -11
15 0 9 -6 12 -17 8 -12 -5 -15 -2 -10 10 4 11 -14 35 -59 79 -36 35 -69 65
-75 66 -5 2 -9 10 -9 18 0 8 -4 14 -10 14 -13 0 -59 48 -52 54 3 3 0 6 -6 6
-5 0 -39 29 -74 65 -36 36 -70 65 -76 65 -7 0 -12 7 -12 16 0 10 -5 14 -16 10
-9 -3 -12 -2 -8 5 3 6 -10 26 -30 45 -20 19 -36 36 -36 38 0 8 -83 86 -91 86
-5 0 -9 3 -9 8 0 4 -14 22 -31 40 -25 27 -34 31 -45 21 -18 -15 -32 -3 -16 13
9 9 -1 24 -44 65 -30 29 -60 53 -65 53 -5 0 -9 7 -9 15 0 9 -7 18 -15 21 -8 4
-15 13 -15 22 0 8 -3 13 -6 10 -6 -7 -54 39 -54 52 0 6 -6 10 -12 10 -7 0 -24
16 -38 35 -14 19 -31 35 -37 35 -7 0 -13 3 -13 8 0 4 -14 22 -31 40 -25 27
-34 31 -45 21 -18 -15 -32 -3 -16 13 9 9 5 20 -20 45 -18 18 -37 33 -44 33 -6
0 -14 9 -17 20 -3 11 -11 20 -19 20 -7 0 -20 14 -28 31 -9 17 -20 31 -25 32
-6 0 -16 8 -23 18 -7 11 -20 19 -28 19 -9 0 -14 5 -12 11 3 9 -67 89 -78 89
-3 0 -39 36 -81 80 -43 44 -83 80 -89 80 -6 0 -14 9 -17 20 -3 11 -12 20 -21
20 -9 0 -16 7 -16 15 0 8 -4 15 -9 15 -5 0 -11 9 -14 21 -3 12 -9 19 -14 16
-4 -3 -19 9 -32 27 -14 18 -39 43 -57 57 -18 13 -30 27 -28 31 3 4 -2 11 -11
15 -16 9 -194 180 -195 188 -2 11 -118 115 -129 115 -7 0 -11 6 -9 12 3 7 -11
25 -30 40 -19 16 -31 28 -26 28 5 0 0 7 -11 16 -29 21 -195 183 -194 190 0 2
-14 16 -30 30 -48 40 -101 95 -101 105 0 5 -4 9 -10 9 -13 0 -59 48 -52 54 3
3 1 6 -5 6 -16 0 -114 101 -124 128 -15 39 -10 69 16 100 14 17 25 35 25 41 0
6 6 11 13 11 16 0 97 84 97 99 0 6 5 11 12 11 6 0 49 38 94 85 46 47 85 85 87
85 2 0 21 -57 43 -126 36 -116 41 -126 71 -140 17 -9 41 -13 52 -9 22 7 70
-14 91 -40 23 -27 2 -29 -30 -1 -20 17 -43 26 -65 26 -18 0 -40 3 -48 6 -13 4
-14 -1 -7 -29 9 -42 18 -57 32 -57 6 0 16 -7 23 -16 8 -12 20 -15 43 -10 27 6
30 10 23 29 -4 12 -23 30 -42 39 -32 17 -33 18 -8 18 14 0 36 -11 48 -24 23
-25 52 -28 114 -11 19 5 26 12 22 22 -4 12 0 14 19 9 48 -12 73 14 38 40 -14
11 -15 13 -1 14 8 0 21 -6 28 -12 11 -10 13 -10 7 -1 -9 16 8 17 34 3 15 -8
21 -6 30 10 6 11 18 20 27 20 13 0 14 -2 2 -17 -8 -9 -9 -14 -4 -12 26 10 162
62 290 109 77 29 145 56 150 60 6 3 30 12 55 19 25 7 63 21 85 31 56 24 371
140 381 140 5 0 17 -26 26 -59 10 -32 23 -71 29 -87 7 -16 20 -56 28 -89 l16
-60 180 -5 c205 -6 243 -17 310 -92 48 -52 65 -95 65 -160 0 -71 -29 -125
-101 -192 -63 -59 -67 -61 -179 -119 -40 -20 -75 -39 -78 -42 -9 -8 50 -76 74
-85 22 -9 70 2 129 29 11 5 97 38 190 72 94 34 175 65 180 69 6 4 23 10 40 14
16 4 32 12 35 17 4 5 22 -7 42 -25 20 -19 40 -31 44 -28 4 4 4 2 1 -4 -3 -6
38 -55 93 -108 l99 -98 63 6 c65 7 133 16 298 41 52 8 131 19 175 25 44 6 121
18 170 25 50 8 119 19 155 24 36 6 106 13 157 17 82 6 96 4 137 -15 52 -26
115 -93 146 -155 26 -55 27 -139 1 -189 -14 -27 -16 -39 -8 -43 7 -2 264 -5
572 -7 308 -1 570 -6 583 -11 l22 -8 0 4811 0 4811 -6500 0 -6500 0 0 -6500z
m6057 5974 c-3 -20 -1 -24 12 -19 13 5 14 4 4 -6 -14 -14 -16 -317 -4 -741 8
-309 -11 -292 291 -271 113 7 372 24 575 38 204 14 456 29 560 35 249 14 246
13 302 65 55 50 73 51 25 2 -18 -18 -32 -36 -32 -40 0 -16 36 -6 48 13 7 11
17 20 23 20 6 0 -1 -14 -14 -31 l-25 -32 31 -33 c16 -19 36 -34 44 -34 7 0 13
-4 13 -10 0 -5 -6 -10 -14 -10 -8 0 -18 5 -21 10 -3 6 -13 10 -21 10 -10 0
-14 -12 -14 -38 0 -46 35 -87 66 -76 16 6 17 5 6 -7 -10 -10 -19 -11 -42 -2
-35 13 -39 2 -7 -20 l22 -16 -24 0 -24 -1 7 -422 c3 -233 9 -537 12 -677 6
-236 8 -254 25 -258 11 -3 19 -12 19 -19 0 -27 45 -31 220 -18 96 7 254 17
350 23 96 6 207 14 246 17 l72 5 6 -133 c3 -73 8 -312 11 -530 l6 -398 -1840
0 -1840 0 -15 -22 c-9 -12 -19 -18 -23 -14 -5 5 -2 11 5 13 6 3 12 9 12 14 0
5 -868 9 -2127 9 -1953 0 -2132 1 -2188 17 -153 42 -253 154 -262 293 -9 120
45 214 166 294 67 44 87 55 174 98 26 12 47 29 47 36 0 8 6 12 13 9 12 -4 95
38 152 77 16 12 68 40 115 64 47 24 92 52 101 62 9 11 19 16 22 13 4 -3 19 3
34 13 37 25 56 36 130 73 35 18 63 39 63 47 0 8 6 14 13 13 13 -2 56 17 132
60 28 16 69 39 93 51 24 12 46 29 49 36 3 8 9 11 14 8 5 -3 9 -1 9 5 0 6 7 8
15 5 8 -4 17 1 21 10 3 9 14 16 23 16 9 0 27 9 41 20 14 11 30 20 37 20 6 0
18 9 26 20 8 11 17 17 20 14 4 -4 19 2 34 12 45 30 65 42 130 75 34 17 68 37
74 45 6 8 20 14 30 14 10 0 24 9 32 20 8 11 17 17 21 13 3 -4 20 3 36 15 16
12 33 22 38 22 5 0 15 7 22 15 7 8 21 15 32 15 10 0 16 5 13 10 -3 6 2 10 13
10 11 0 31 9 45 20 14 11 30 20 35 20 5 0 15 7 22 15 7 8 18 15 25 15 8 0 49
22 92 48 43 26 85 51 93 55 8 4 22 11 30 17 8 5 50 28 93 52 43 24 86 48 95
53 9 6 40 23 67 38 28 15 64 36 80 47 17 11 51 30 78 42 26 12 47 28 47 35 0
8 6 13 13 11 22 -4 57 13 57 28 0 8 4 13 8 10 8 -5 90 30 102 43 7 9 40 28 85
51 22 11 54 29 70 40 17 11 46 28 65 37 19 10 44 26 54 35 10 10 22 15 26 13
4 -3 15 4 25 15 10 11 26 20 36 20 10 0 21 5 24 10 4 6 28 21 53 34 105 51
340 184 347 196 4 6 14 10 23 10 10 0 33 13 52 29 19 15 46 32 60 36 14 4 39
18 57 31 18 14 51 33 75 44 24 11 50 24 58 29 8 5 43 26 78 47 34 20 62 41 62
45 0 5 4 8 8 6 21 -6 116 59 161 112 54 62 62 66 167 76 46 4 109 37 118 61 3
9 12 14 20 11 8 -3 22 0 32 7 11 7 51 30 89 51 39 20 76 42 83 48 15 12 63 38
121 66 25 12 59 33 77 46 18 14 37 25 43 25 6 0 11 5 11 10 0 6 9 10 19 10 11
0 22 4 25 9 4 5 25 19 49 30 24 12 53 30 64 40 11 11 24 17 27 14 3 -4 14 0
23 8 10 9 29 21 43 27 41 20 71 39 83 51 6 6 20 11 30 11 15 0 18 -5 14 -26z
m-2087 -4009 c54 -37 79 -83 79 -150 1 -80 -14 -116 -64 -159 -44 -36 -50 -38
-138 -45 l-92 -6 -2 -410 c-5 -930 -3 -4127 2 -4136 4 -5 38 -9 76 -9 95 0
141 -22 197 -94 17 -23 22 -42 22 -93 0 -82 -17 -121 -71 -164 l-43 -34 -1091
0 c-599 0 -1099 3 -1110 5 -28 7 -108 94 -111 122 -11 123 -5 147 55 204 51
48 64 52 169 53 l82 1 -2 2278 -3 2277 -95 5 c-166 10 -210 55 -225 229 -3 46
-9 90 -12 99 -4 10 -2 13 5 8 7 -4 12 -16 12 -27 0 -10 7 -19 15 -19 8 0 15 6
15 13 0 12 39 41 95 71 27 14 144 15 1110 13 l1080 -2 45 -30z m3635 19 c13
-9 29 -13 35 -9 5 3 10 -1 10 -10 0 -11 5 -15 16 -11 9 3 12 2 9 -5 -4 -6 0
-18 8 -27 44 -51 46 -157 4 -221 -42 -63 -87 -84 -189 -89 l-88 -4 0 -377 c0
-280 3 -380 12 -389 9 -9 9 -12 0 -12 -18 0 -17 -1670 1 -1689 10 -11 10 -14
0 -18 -10 -4 -13 -106 -13 -467 l0 -462 -30 -29 c-16 -15 -36 -43 -45 -61 -9
-19 -19 -34 -24 -34 -6 0 -75 -92 -108 -145 -40 -63 -73 -146 -73 -181 0 -55
23 -141 51 -196 25 -49 148 -207 162 -208 4 0 21 -15 37 -32 27 -30 29 -39 30
-105 0 -58 3 -73 15 -73 8 0 15 -4 15 -10 0 -5 -6 -10 -12 -10 -7 0 -14 -14
-15 -30 l-2 -30 73 0 c91 0 131 -13 177 -57 46 -44 64 -102 54 -178 -6 -49
-12 -61 -47 -93 -22 -20 -55 -42 -72 -49 -42 -16 -2141 -18 -2183 -2 -37 14
-93 52 -93 63 0 5 -7 17 -15 26 -22 24 -30 102 -16 152 14 48 66 111 102 123
13 4 62 11 109 14 l85 6 3 2278 2 2277 -78 0 c-124 0 -177 26 -213 105 -22 47
-24 103 -6 160 15 51 41 79 97 104 44 20 61 21 1118 21 963 0 1075 -2 1097
-16z m1132 -6027 c553 -556 613 -618 613 -625 0 -4 -273 -7 -607 -8 -335 0
-666 -1 -738 -2 -71 -2 -1646 0 -3500 3 l-3369 6 -41 24 c-59 36 -80 57 -85
85 -3 14 -5 185 -5 380 l0 355 25 34 c14 19 48 44 75 57 l50 24 3626 0 3627 0
329 -333z m-3522 -797 c14 -15 15 -20 4 -20 -11 0 -11 -2 -1 -8 20 -13 5 -37
-62 -105 l-61 -62 2316 -3 2315 -2 205 -203 c241 -237 343 -329 354 -319 5 4
5 2 2 -4 -10 -18 366 -389 384 -379 5 4 9 1 9 -6 0 -7 7 -21 17 -31 16 -17
-19 -18 -1103 -18 l-1118 0 -38 -37 c-21 -20 -41 -34 -45 -30 -3 4 0 13 8 20
49 41 45 45 -55 46 -81 0 -94 -2 -90 -14 8 -21 48 -29 74 -15 31 17 36 5 6
-15 -30 -20 -61 -13 -93 21 -21 23 -92 36 -78 15 10 -17 -12 -21 -25 -6 -11
13 -233 15 -1838 15 l-1826 0 -23 -22 c-24 -22 -33 -13 -10 11 10 11 8 13 -13
7 -14 -3 -35 -6 -47 -6 -12 0 -41 -18 -64 -40 -32 -29 -49 -38 -64 -34 -48 15
-85 34 -85 43 0 15 15 14 29 -3 7 -8 23 -17 38 -21 26 -6 55 12 74 47 9 16 3
18 -66 18 -48 0 -74 -4 -70 -10 3 -6 1 -10 -4 -10 -6 0 -11 5 -11 10 0 6 -10
10 -23 10 -20 0 -23 -5 -23 -39 1 -32 9 -48 47 -90 47 -52 66 -60 87 -39 9 9
12 9 12 0 0 -10 -30 -32 -43 -32 -8 0 -127 122 -127 131 0 4 4 10 10 14 9 6
-7 55 -19 55 -14 0 3 -87 21 -112 11 -16 15 -28 9 -28 -18 0 -41 43 -41 76 0
18 -3 39 -6 48 -6 15 -149 16 -1519 16 l-1513 0 -32 -30 c-28 -26 -38 -30 -64
-24 -17 4 -40 17 -51 30 -19 22 -26 23 -197 26 l-177 3 -45 44 c-30 29 -48 57
-55 87 -7 26 -11 162 -11 351 0 303 1 309 24 358 29 62 63 94 113 106 21 5
1006 9 2288 9 l2250 1 38 44 c31 36 36 48 28 62 -6 10 -11 14 -11 10 0 -5 -4
-5 -10 -2 -6 4 -4 15 5 29 8 12 12 26 8 29 -9 10 27 47 47 47 9 0 25 -9 35
-20z"/>
</g>
</svg>
