<?xml version="1.0" encoding="iso-8859-1"?>
<!-- Generator: Adobe Illustrator 16.0.0, SVG Export Plug-In . SVG Version: 6.00 Build 0)  -->
<!DOCTYPE svg PUBLIC "-//W3C//DTD SVG 1.1//EN" "http://www.w3.org/Graphics/SVG/1.1/DTD/svg11.dtd">
<svg version="1.1" id="Capa_1" xmlns="http://www.w3.org/2000/svg" xmlns:xlink="http://www.w3.org/1999/xlink" x="0px" y="0px"
	 width="442.041px" height="442.041px" viewBox="0 0 442.041 442.041" style="enable-background:new 0 0 442.041 442.041;"
	 xml:space="preserve">
<g>
	<g id="Layer_2_17_">
		<path d="M430.021,209c0-115.243-93.757-209-209-209s-209,93.757-209,209v223.041c0,2.654,1.055,5.199,2.933,7.076
			c1.875,1.873,4.417,2.924,7.067,2.924c0.004,0,0.008,0,0.013,0l397.987-0.1c5.523,0,10-4.477,10-10
			c0-0.182-0.005-0.361-0.014-0.539c0.009-0.178,0.014-0.355,0.014-0.537V209z M365.458,87.252l-55.146,33.096
			c-9.28-8.891-19.883-16.41-31.477-22.238l34.291-54.094C333.076,55.198,350.8,69.889,365.458,87.252z M231.021,20.265
			c22.628,1.186,44.213,6.372,64.062,14.859l-35.068,55.321c-9.262-2.939-18.969-4.866-28.995-5.637L231.021,20.265L231.021,20.265z
			 M211.021,20.265v64.543c-10.205,0.785-20.079,2.769-29.488,5.797l-35.041-55.277C166.471,26.722,188.214,21.46,211.021,20.265z
			 M128.475,44.262l34.278,54.073c-11.667,5.923-22.316,13.567-31.619,22.594L76.056,87.875
			C90.708,70.367,108.466,55.547,128.475,44.262z M91.857,421.955l-59.837,0.074v-68.596h59.837V421.955z M91.857,333.434H32.021
			v-64h59.837V333.434z M91.857,213.587v35.847H32.021V209c0-8.183,0.524-16.246,1.538-24.158l58.933,15.942
			C92.076,204.997,91.857,209.267,91.857,213.587z M37.179,165.104c5.287-22.14,14.474-42.782,26.802-61.151l53.705,32.23
			c-9.927,13.219-17.378,28.396-21.665,44.838L37.179,165.104z M211.018,421.941h-98.997v-68.508h98.997V421.941L211.018,421.941z
			 M171.95,276.951c0-5.346,1.247-11.508,3.646-16.782c2.514,6.968,6.466,14.421,12.627,19.466c2.655,2.174,6.292,2.704,9.458,1.377
			c3.164-1.328,5.336-4.295,5.646-7.712c0.272-3.012,0.163-6.704,0.036-10.979c-0.625-21.07,0.435-42.356,17.419-55.221
			c0.324,20.734,2.432,37.918,15.618,53.418c2.656,3.121,7.045,4.129,10.796,2.477c3.75-1.652,5.972-5.571,5.46-9.637
			c-0.345-2.744-0.613-10.045,4.934-15.728c1.688,8.392,4.623,14.935,7.151,20.571c2.99,6.666,5.353,11.932,5.353,18.75
			c0,27.058-22.014,49.07-49.071,49.07C193.963,326.021,171.95,304.009,171.95,276.951z M330.184,421.941h-99.166v-68.508h99.166
			V421.941L330.184,421.941z M330.184,333.434h-72.067c18.362-12.102,30.514-32.895,30.514-56.482
			c0-10.785-3.546-18.691-6.977-26.336c-3.596-8.016-6.992-15.588-6.913-27.666c0.02-2.918-1.337-5.675-3.661-7.44
			c-2.322-1.766-5.342-2.335-8.148-1.534c-10.213,2.911-17.25,8.144-21.828,14.343c-1.859-9.287-1.85-20.16-1.839-33.521
			l0.001-3.111c0-3.043-1.494-5.892-3.996-7.623c-2.501-1.73-5.693-2.124-8.542-1.049c-27.691,10.44-37.355,31.399-40.565,50.597
			c-0.343-0.256-0.707-0.488-1.088-0.696c-2.697-1.472-5.949-1.513-8.681-0.104c-15.873,8.168-22.978,28.055-22.978,44.143
			c0,23.588,12.151,44.382,30.514,56.482H111.86V213.587c0-60.193,48.97-109.163,109.163-109.163
			c60.193,0,109.163,48.97,109.163,109.163v119.847H330.184z M323.863,135.541l53.751-32.258
			c12.391,18.293,21.649,38.866,27.033,60.941l-58.863,15.923C341.393,163.774,333.856,148.676,323.863,135.541z M410.021,422.791
			h-59.342v-69.445h59.342V422.791z M410.021,333.443h-59.837v-64h59.837V333.443z M410.021,249.245h-59.837v-34.908
			c0-4.632-0.25-9.207-0.729-13.714l58.901-15.934c1.092,8.202,1.665,16.565,1.665,25.062V249.245z"/>
	</g>
</g>
<g>
</g>
<g>
</g>
<g>
</g>
<g>
</g>
<g>
</g>
<g>
</g>
<g>
</g>
<g>
</g>
<g>
</g>
<g>
</g>
<g>
</g>
<g>
</g>
<g>
</g>
<g>
</g>
<g>
</g>
</svg>
