<?xml version="1.0" standalone="no"?>
<!DOCTYPE svg PUBLIC "-//W3C//DTD SVG 20010904//EN"
 "http://www.w3.org/TR/2001/REC-SVG-20010904/DTD/svg10.dtd">
<svg version="1.0" xmlns="http://www.w3.org/2000/svg"
 width="741.000000pt" height="683.000000pt" viewBox="0 0 741.000000 683.000000"
 preserveAspectRatio="xMidYMid meet">
<metadata>
Created by potrace 1.16, written by Peter Selinger 2001-2019
</metadata>
<g transform="translate(0.000000,683.000000) scale(0.100000,-0.100000)"
fill="#000000" stroke="none">
<path d="M3408 6353 l-3 -358 -397 -3 -398 -2 0 -270 0 -270 398 -2 397 -3 3
-536 2 -535 -1620 -1134 -1620 -1135 0 -57 0 -58 215 0 215 0 0 -950 0 -950
685 0 685 0 0 953 0 954 873 623 c479 343 879 624 887 624 8 0 408 -281 888
-624 l872 -623 0 -954 0 -953 685 0 685 0 0 950 0 950 215 0 215 0 0 58 0 57
-1620 1134 -1620 1135 2 535 3 536 398 3 397 2 0 270 0 270 -397 2 -398 3 -3
358 -2 357 -320 0 -320 0 -2 -357z"/>
<path d="M3596 1919 c-94 -13 -236 -62 -326 -112 -109 -61 -234 -189 -288
-294 l-42 -81 0 -636 0 -636 790 0 790 0 0 635 0 636 -31 62 c-102 201 -290
345 -534 407 -89 23 -265 32 -359 19z"/>
</g>
</svg>
