<?xml version="1.0" standalone="no"?>
<!DOCTYPE svg PUBLIC "-//W3C//DTD SVG 20010904//EN"
 "http://www.w3.org/TR/2001/REC-SVG-20010904/DTD/svg10.dtd">
<svg version="1.0" xmlns="http://www.w3.org/2000/svg"
 width="370.000000pt" height="370.000000pt" viewBox="0 0 370.000000 370.000000"
 preserveAspectRatio="xMidYMid meet">
<metadata>
Created by potrace 1.16, written by Peter Selinger 2001-2019
</metadata>
<g transform="translate(0.000000,370.000000) scale(0.100000,-0.100000)"
fill="#000000" stroke="none">
<path d="M587 3641 c-193 -206 -304 -559 -267 -846 31 -242 122 -449 270 -618
l42 -48 47 43 c25 23 48 46 49 50 2 5 -14 29 -37 53 -155 168 -253 449 -237
680 15 230 79 397 217 571 l61 76 -43 44 c-24 24 -46 44 -50 44 -3 0 -27 -22
-52 -49z"/>
<path d="M3011 3646 l-43 -44 61 -76 c190 -239 258 -526 196 -821 -32 -152
-119 -324 -216 -430 -46 -50 -47 -48 21 -112 l35 -33 42 45 c197 211 305 545
273 846 -20 187 -75 346 -174 499 -44 68 -131 170 -145 170 -4 0 -26 -20 -50
-44z"/>
<path d="M861 3383 c-53 -61 -135 -228 -152 -313 -35 -164 -8 -362 68 -500 33
-61 111 -168 123 -170 3 0 27 21 52 48 l47 47 -50 65 c-74 98 -119 232 -119
354 1 124 59 284 136 374 l37 44 -50 50 -50 50 -42 -49z"/>
<path d="M2745 3380 l-48 -49 37 -43 c77 -90 135 -250 136 -374 0 -125 -38
-241 -115 -348 l-53 -74 48 -47 47 -46 47 53 c54 62 117 185 143 278 12 46 17
100 17 185 0 132 -20 217 -75 328 -26 52 -108 169 -128 181 -4 3 -29 -17 -56
-44z"/>
<path d="M1787 3209 c-88 -21 -167 -82 -209 -162 -19 -34 -23 -58 -23 -132 0
-95 18 -149 67 -202 11 -12 17 -27 13 -33 -4 -6 -31 -79 -60 -163 -50 -144
-262 -753 -475 -1362 -54 -154 -153 -439 -220 -633 l-123 -352 -122 0 c-108 0
-124 -2 -143 -20 -46 -43 -37 -109 18 -137 36 -18 2644 -18 2680 0 55 28 64
94 18 137 -19 18 -35 20 -143 20 l-122 0 -83 237 c-45 131 -129 373 -187 538
-57 165 -126 363 -153 440 -157 444 -450 1291 -450 1302 0 6 13 31 29 55 109
164 44 376 -139 451 -48 20 -127 27 -173 16z m209 -839 c46 -129 83 -242 83
-250 1 -17 -214 -265 -229 -265 -14 0 -230 247 -230 264 0 7 29 95 64 195 35
99 72 207 83 239 l18 58 64 -3 64 -3 83 -235z m-321 -490 c48 -55 86 -102 84
-104 -2 -2 -49 -27 -104 -56 -55 -29 -124 -66 -153 -82 -29 -17 -55 -28 -58
-26 -2 3 25 87 61 188 36 101 65 185 65 187 0 10 25 -15 105 -107z m520 -81
c35 -101 62 -185 60 -187 -5 -6 -315 162 -312 170 5 15 179 209 183 205 3 -3
34 -87 69 -188z m-101 -227 c189 -101 220 -121 232 -149 8 -18 14 -39 14 -46
0 -8 -108 -72 -246 -146 l-246 -132 -86 47 c-48 26 -100 55 -117 64 -16 9 -87
47 -157 85 -71 37 -128 74 -128 80 0 7 5 26 11 43 9 26 32 43 147 106 259 142
327 176 342 170 8 -2 113 -58 234 -122z m-576 -416 c106 -57 192 -108 190
-112 -2 -9 -540 -243 -546 -239 -4 4 152 455 158 455 3 0 92 -47 198 -104z
m872 94 c0 -6 34 -108 75 -227 42 -119 74 -217 73 -218 -6 -5 -553 234 -551
241 1 4 48 32 105 63 57 30 141 76 188 102 88 49 110 56 110 39z m-162 -432
c193 -83 352 -153 352 -157 -1 -3 -155 -115 -344 -248 -323 -229 -346 -243
-387 -243 -41 1 -64 15 -339 211 -162 116 -316 225 -342 242 -26 18 -48 35
-48 38 0 11 725 318 740 313 8 -3 174 -73 368 -156z m-875 -457 c141 -100 257
-185 257 -187 0 -2 -151 -4 -336 -4 l-335 0 7 23 c3 12 34 100 66 194 43 122
64 171 72 165 7 -4 128 -90 269 -191z m1342 4 c36 -103 64 -190 62 -192 -2 -2
-154 -2 -338 -1 l-334 3 99 70 c54 39 176 125 270 192 93 67 172 121 173 119
2 -2 33 -88 68 -191z"/>
<path d="M1147 3128 c-63 -82 -86 -181 -67 -282 12 -66 60 -163 85 -173 9 -3
32 13 59 43 37 42 42 51 31 64 -23 27 -45 92 -45 135 0 28 10 62 29 98 l29 55
-48 47 -48 47 -25 -34z"/>
<path d="M2478 3114 l-46 -46 29 -55 c42 -80 35 -176 -16 -233 -13 -14 -9 -22
35 -65 56 -55 61 -54 102 22 33 61 52 153 45 215 -7 58 -51 158 -81 187 l-22
21 -46 -46z"/>
</g>
</svg>
